<?xml version="1.0" encoding="utf-8"?>
<svg version="1.1"
	 xmlns="http://www.w3.org/2000/svg" xmlns:xlink="http://www.w3.org/1999/xlink" xmlns:a="http://ns.adobe.com/AdobeSVGViewerExtensions/3.0/"
	 x="0px" y="0px" width="350px" height="55px" viewBox="0 0 350 55" style="enable-background:new 0 0 350 55;"
	 xml:space="preserve">
<style type="text/css">
<![CDATA[
	.st0{fill:#1D1D1B;}
]]>
</style>
<path class="st0" d="M41.468,35.259l9.166,5.248c-4.583,8.428-13.527,13.896-23.654,13.896C12.196,54.403,0,43.094,0,27.202
	C0,11.309,12.196,0,26.98,0c10.127,0,19.071,5.47,23.654,13.896l-9.166,5.248c-2.661-5.47-8.057-8.796-14.488-8.796
	c-9.24,0-16.262,6.875-16.262,16.854c0,9.979,7.022,16.853,16.262,16.853C33.411,44.055,38.807,40.728,41.468,35.259z"/>
<path class="st0" d="M99.789,53.073V30.897H73.917v22.174H63.569V1.33h10.348v19.219h25.872V1.33h10.348v51.743H99.789z"/>
<path class="st0" d="M180.358,53.073h-11.31l-5.1-11.827h-27.054l-5.1,11.827h-11.31L143.4,1.33h14.045L180.358,53.073z
	 M159.81,31.637l-9.388-21.806l-9.388,21.806H159.81z"/>
<path class="st0" d="M228.036,53.073l-27.721-40.729v40.729h-9.608V1.33h13.675l23.284,34.298V1.33h9.61v51.743H228.036z"/>
<path class="st0" d="M257.231,53.073V1.33h36.959v9.61h-27.35v11.088h23.654v9.61h-23.654v11.826h28.829v9.61L257.231,53.073
	L257.231,53.073z"/>
<path class="st0" d="M312.301,53.073V1.33h10.349v41.396h27.35v10.348H312.301z"/>
</svg>